:FULLY-SPECIFIED
:FORCE-ALL-JOINTS-BE-3DOF
:DEGREES
178
root 8.11672 16.7217 -12.2461 7.85285 6.74248 -2.01298
lfemur -26.3302 8.16486 -17.8579
ltibia 62.5736 0 0
lfoot -9.91667 10.0607 0
ltoes -0.849077 0 0
rfemur -20.4373 3.19785 26.5716
rtibia 27.6611 0 0
rfoot -17.4366 1.68646 0
rtoes -15.6099 0 0
lowerback -4.43287 0.513113 0.442163
upperback -1.28495 0.620718 3.47185
thorax 1.1309 0.315113 3.36753
lowerneck -17.1079 -7.65028 -15.6792
upperneck 13.6393 -9.48215 15.9131
head 8.63281 -3.90716 6.78439
lclavicle -5.11402e-15 -1.78906e-14 0
lhumerus -47.1211 -12.0501 96.5805
lradius 32.6686 0 0
lwrist 15.9757 0 0
lhand -13.2534 -26.0223 0
lfingers 7.12502 0 0
lthumb 12.85 3.578 0
rclavicle -5.11402e-15 -1.78906e-14 0
rhumerus -39.922 11.2215 -79.2461
rradius 41.041 0 0
rwrist -20.8367 0 0
rhand -30.5113 -23.6735 0
rfingers 7.12502 0 0
rthumb -3.81123 -53.6199 0
179
root 8.11327 16.7117 -12.1268 7.80282 6.54219 -2.06944
lfemur -27.5103 8.05931 -18.085
ltibia 62.3371 0 0
lfoot -10.9338 10.3775 0
ltoes -2.05145 0 0
rfemur -20.0151 3.3759 26.7394
rtibia 27.7762 0 0
rfoot -17.8097 1.61299 0
rtoes -15.3222 0 0
lowerback -4.57019 0.611792 0.450645
upperback -0.810395 0.732547 3.46857
thorax 1.68973 0.364034 3.37076
lowerneck -18.4314 -7.82002 -15.4275
upperneck 13.9512 -9.59308 15.7453
head 8.96994 -3.89989 6.65259
lclavicle -7.7176e-15 -1.27811e-14 0
lhumerus -46.1594 -11.8151 96.1655
lradius 32.7431 0 0
lwrist 16.5956 0 0
lhand -13.1691 -25.4546 0
lfingers 7.12502 0 0
lthumb 12.9309 4.13481 0
rclavicle -7.7176e-15 -1.27811e-14 0
rhumerus -38.504 10.825 -78.8065
rradius 41.3873 0 0
rwrist -20.7814 0 0
rhand -30.3453 -23.8374 0
rfingers 7.12502 0 0
rthumb -3.65097 -53.7868 0
180
root 8.10982 16.7017 -12.0076 7.75147 6.34614 -2.11934
lfemur -28.6422 7.94905 -18.3073
ltibia 61.9859 0 0
lfoot -11.8746 10.6873 0
ltoes -3.19775 0 0
rfemur -19.569 3.54274 26.8975
rtibia 27.8724 0 0
rfoot -18.1738 1.54627 0
rtoes -15.0223 0 0
lowerback -4.67531 0.709724 0.462557
upperback -0.441302 0.847653 3.45948
thorax 2.12232 0.416109 3.36436
lowerneck -19.4167 -7.94015 -15.225
upperneck 14.193 -9.67086 15.6171
head 9.22226 -3.89165 6.55169
lclavicle -9.87737e-15 -8.64345e-15 0
lhumerus -45.4322 -11.617 95.8331
lradius 32.7883 0 0
lwrist 17.1 0 0
lhand -13.1355 -24.9239 0
lfingers 7.12502 0 0
lthumb 12.9629 4.65712 0
rclavicle -9.87737e-15 -8.64345e-15 0
rhumerus -37.3426 10.4433 -78.4212
rradius 41.7687 0 0
rwrist -20.772 0 0
rhand -30.2662 -24.0401 0
rfingers 7.12502 0 0
rthumb -3.57453 -53.9907 0
181
root 8.10637 16.6917 -11.8883 7.70227 6.15665 -2.15791
lfemur -29.7187 7.83825 -18.53
ltibia 61.5101 0 0
lfoot -12.6816 10.9469 0
ltoes -4.00776 0 0
rfemur -19.0833 3.6888 27.0395
rtibia 27.9291 0 0
rfoot -18.5255 1.50193 0
rtoes -14.7495 0 0
lowerback -4.71648 0.812651 0.480998
upperback -0.271957 0.977584 3.44129
thorax 2.31344 0.478519 3.3425
lowerneck -19.7579 -7.97371 -15.1292
upperneck 14.295 -9.69407 15.5712
head 9.31356 -3.88573 6.51286
lclavicle -1.12313e-14 -6.36111e-15 0
lhumerus -45.1518 -11.4728 95.6492
lradius 32.8186 0 0
lwrist 17.4559 0 0
lhand -13.2896 -24.5618 0
lfingers 7.12502 0 0
lthumb 12.8141 5.02488 0
rclavicle -1.12313e-14 -6.36111e-15 0
rhumerus -36.6598 10.1208 -78.1344
rradius 42.2132 0 0
rwrist -20.8456 0 0
rhand -30.3406 -24.2694 0
rfingers 7.12502 0 0
rthumb -3.64639 -54.2179 0
182
root 8.10793 16.6846 -11.7625 7.65489 5.97394 -2.17798
lfemur -30.7425 7.72437 -18.7634
ltibia 60.9104 0 0
lfoot -13.3724 11.1972 0
ltoes -4.46545 0 0
rfemur -18.5655 3.80548 27.1576
rtibia 27.9736 0 0
rfoot -18.8783 1.47948 0
rtoes -14.5042 0 0
lowerback -4.67905 0.924736 0.50625
upperback -0.354135 1.13004 3.40768
thorax 2.2015 0.555834 3.29778
lowerneck -19.2897 -7.89677 -15.1588
upperneck 14.2265 -9.64817 15.6246
head 9.20347 -3.88233 6.54934
lclavicle -1.19726e-14 -6.80838e-15 0
lhumerus -45.4325 -11.4133 95.6575
lradius 32.8299 0 0
lwrist 17.6436 0 0
lhand -13.698 -24.3418 0
lfingers 7.12502 0 0
lthumb 12.4202 5.26739 0
rclavicle -1.19726e-14 -6.80838e-15 0
rhumerus -36.5784 9.84512 -77.9553
rradius 42.7496 0 0
rwrist -21.0107 0 0
rhand -30.609 -24.5525 0
rfingers 7.12502 0 0
rthumb -3.90551 -54.4951 0
183
root 8.10948 16.6774 -11.6367 7.60648 5.79619 -2.18194
lfemur -31.72 7.60358 -19.0056
ltibia 60.1951 0 0
lfoot -13.9964 11.481 0
ltoes -4.79178 0 0
rfemur -18.0294 3.89871 27.2553
rtibia 28.0279 0 0
rfoot -19.2374 1.46633 0
rtoes -14.2549 0 0
lowerback -4.58552 1.04222 0.53589
upperback -0.622759 1.29732 3.36002
thorax 1.86637 0.643222 3.23338
lowerneck -18.2239 -7.73412 -15.2713
upperneck 14.037 -9.54737 15.7465
head 8.94488 -3.87889 6.63881
lclavicle -1.24295e-14 -9.45333e-15 0
lhumerus -46.1271 -11.4309 95.8144
lradius 32.8097 0 0
lwrist 17.6856 0 0
lhand -14.2644 -24.1534 0
lfingers 7.12502 0 0
lthumb 11.874 5.48655 0
rclavicle -1.24295e-14 -9.45333e-15 0
rhumerus -36.9454 9.57798 -77.8505
rradius 43.3611 0 0
rwrist -21.239 0 0
rhand -31.0259 -24.9049 0
rfingers 7.12502 0 0
rthumb -4.30808 -54.8384 0
184
root 8.11104 16.6703 -11.5109 7.55675 5.62267 -2.17934
lfemur -32.6494 7.47808 -19.2431
ltibia 59.365 0 0
lfoot -14.5441 11.7579 0
ltoes -5.06205 0 0
rfemur -17.4693 3.98074 27.3433
rtibia 28.0634 0 0
rfoot -19.5875 1.45992 0
rtoes -13.9935 0 0
lowerback -4.45979 1.15895 0.56896
upperback -0.99684 1.46788 3.30654
thorax 1.40502 0.733765 3.15935
lowerneck -16.8199 -7.52186 -15.433
upperneck 13.7774 -9.41342 15.908
head 8.60149 -3.87448 6.75917
lclavicle -1.24427e-14 -1.30701e-14 0
lhumerus -47.0561 -11.4855 96.0538
lradius 32.7601 0 0
lwrist 17.612 0 0
lhand -14.8815 -24.0021 0
lfingers 7.12502 0 0
lthumb 11.2789 5.67122 0
rclavicle -1.24427e-14 -1.30701e-14 0
rhumerus -37.5689 9.32555 -77.8001
rradius 44.0077 0 0
rwrist -21.5131 0 0
rhand -31.5296 -25.296 0
rfingers 7.12502 0 0
rthumb -4.79445 -55.2186 0
185
root 8.1126 16.6631 -11.3852 7.50542 5.45268 -2.17973
lfemur -33.5288 7.3501 -19.4624
ltibia 58.4213 0 0
lfoot -15.0058 11.9875 0
ltoes -5.35153 0 0
rfemur -16.8796 4.06379 27.4323
rtibia 28.0511 0 0
rfoot -19.9132 1.45771 0
rtoes -13.7117 0 0
lowerback -4.32579 1.2688 0.604502
upperback -1.39539 1.63017 3.25551
thorax 0.914383 0.820542 3.08572
lowerneck -15.3374 -7.2961 -15.6101
upperneck 13.4983 -9.26805 16.0801
head 8.23699 -3.86821 6.88832
lclavicle -1.18525e-14 -1.64329e-14 0
lhumerus -48.04 -11.5366 96.3102
lradius 32.6831 0 0
lwrist 17.453 0 0
lhand -15.442 -23.8932 0
lfingers 7.12502 0 0
lthumb 10.7383 5.81021 0
rclavicle -1.18525e-14 -1.64329e-14 0
rhumerus -38.2571 9.09397 -77.7841
rradius 44.6492 0 0
rwrist -21.8155 0 0
rhand -32.0584 -25.6956 0
rfingers 7.12502 0 0
rthumb -5.30499 -55.6066 0
186
root 8.11415 16.656 -11.2594 7.4522 5.28549 -2.19267
lfemur -34.3564 7.22184 -19.6501
ltibia 57.3647 0 0
lfoot -15.3719 12.1293 0
ltoes -5.73553 0 0
rfemur -16.2547 4.16011 27.5331
rtibia 27.9624 0 0
rfoot -20.199 1.45714 0
rtoes -13.4012 0 0
lowerback -4.20742 1.36561 0.641557
upperback -1.73742 1.77264 3.21516
thorax 0.491408 0.896635 3.02256
lowerneck -14.0357 -7.09294 -15.7686
upperneck 13.2507 -9.13302 16.2339
head 7.91509 -3.85916 7.00415
lclavicle -1.04997e-14 -1.83158e-14 0
lhumerus -48.8991 -11.5441 96.5176
lradius 32.5809 0 0
lwrist 17.2388 0 0
lhand -15.8388 -23.8322 0
lfingers 7.12502 0 0
lthumb 10.3556 5.89239 0
rclavicle -1.04997e-14 -1.83158e-14 0
rhumerus -38.8182 8.88939 -77.7827
rradius 45.2456 0 0
rwrist -22.1288 0 0
rhand -32.5504 -26.0733 0
rfingers 7.12502 0 0
rthumb -5.78006 -55.9732 0
187
root 8.11571 16.6488 -11.1336 7.39681 5.12038 -2.22772
lfemur -35.1305 7.09552 -19.7927
ltibia 56.1964 0 0
lfoot -15.633 12.1431 0
ltoes -6.28932 0 0
rfemur -15.5887 4.28192 27.6564
rtibia 27.7685 0 0
rfoot -20.4294 1.45568 0
rtoes -13.0538 0 0
lowerback -4.1286 1.44324 0.679166
upperback -1.94194 1.88373 3.19374
thorax 0.233041 0.955124 2.97989
lowerneck -13.1744 -6.94848 -15.8748
upperneck 13.0853 -9.03005 16.3404
head 7.69947 -3.84643 7.08455
lclavicle -8.22472e-15 -1.74931e-14 0
lhumerus -49.454 -11.4676 96.6104
lradius 32.4557 0 0
lwrist 16.9998 0 0
lhand -15.9646 -23.8245 0
lfingers 7.12502 0 0
lthumb 10.2343 5.90658 0
rclavicle -8.22472e-15 -1.74931e-14 0
rhumerus -39.0603 8.71797 -77.7758
rradius 45.7569 0 0
rwrist -22.4354 0 0
rhand -32.9439 -26.3987 0
rfingers 7.12502 0 0
rthumb -6.16002 -56.2892 0
